<svg width="489" height="346" viewBox="0 0 489 346" fill="none" xmlns="http://www.w3.org/2000/svg">
<g clip-path="url(#clip0)">
<path d="M107.934 106.876C107.934 106.876 89.936 85.1085 108.747 64.8746C108.746 64.8746 126.385 86.0436 107.934 106.876Z" fill="#56B300"/>
<path d="M125.706 109.032C125.706 109.032 125.707 93.8486 141.61 87.6366C141.61 87.6366 130.547 80.7359 118.792 91.0879C107.036 101.44 113.26 120.074 113.26 120.074L125.706 109.032Z" fill="#56B300"/>
<path d="M117.977 103.316C117.977 103.316 117.978 85.9209 136.199 78.8046C136.199 78.8046 123.524 70.8969 110.054 82.758C96.586 94.6191 103.716 115.968 103.716 115.968L117.977 103.316Z" fill="#008218"/>
<path d="M89.14 109.032C89.14 109.032 89.139 93.8486 73.236 87.6366C73.236 87.6366 84.298 80.7359 96.054 91.0879C107.81 101.439 101.586 120.073 101.586 120.073L89.14 109.032Z" fill="#56B300"/>
<path d="M96.868 103.316C96.868 103.316 96.867 85.9209 78.646 78.8046C78.646 78.8046 91.321 70.8969 104.791 82.758C118.259 94.6191 111.129 115.968 111.129 115.968L96.868 103.316Z" fill="#008218"/>
<path d="M132.95 140.309C132.95 154.236 121.638 165.526 107.684 165.526H107.215C93.261 165.526 81.949 154.236 81.949 140.309V124.87C81.949 110.943 93.26 99.6523 107.215 99.6523H107.684C121.638 99.6523 132.95 110.943 132.95 124.87V140.309Z" fill="#FF9600"/>
</g>
<g clip-path="url(#clip1)">
<path d="M186.052 184.69C186.052 184.69 166.251 173.204 170.688 150.709C170.688 150.709 188.484 159.54 186.052 184.69Z" fill="#56B300"/>
<path d="M185.601 184.69C185.601 184.69 205.402 173.204 200.965 150.709C200.965 150.709 183.169 159.54 185.601 184.69Z" fill="#56B300"/>
<path d="M188.649 176.482C188.649 178.261 187.204 179.705 185.42 179.705H184.877C183.094 179.705 181.649 178.261 181.649 176.482V153.984C181.649 152.205 183.094 150.761 184.877 150.761H185.42C187.203 150.761 188.649 152.204 188.649 153.984V176.482Z" fill="#008218"/>
<path d="M185.827 219.899C200.186 219.899 211.827 208.281 211.827 193.949C211.827 179.617 200.186 167.999 185.827 167.999C171.468 167.999 159.827 179.617 159.827 193.949C159.827 208.281 171.468 219.899 185.827 219.899Z" fill="#793B76"/>
<path d="M189.024 234.689C188.682 239.361 183.33 239.361 182.629 234.689L178.681 211.839C178.681 207.972 181.823 204.657 185.7 204.657H185.956C189.831 204.657 192.973 207.972 192.973 211.839L189.024 234.689Z" fill="#793B76"/>
</g>
<g clip-path="url(#clip2)">
<path d="M163.089 327.059L159.244 323.703C159.485 323.413 183.333 294.192 183.333 272.234H188.333C188.333 282.215 184.064 294.782 175.646 308.86C169.453 319.222 163.347 326.752 163.089 327.059Z" fill="#985123"/>
<path d="M208.578 327.059C208.32 326.751 202.215 319.221 196.02 308.86C187.602 294.782 183.334 282.215 183.334 272.234H188.334C188.334 294.192 212.182 323.414 212.423 323.703L208.578 327.059Z" fill="#985123"/>
<path d="M185.945 272.255C185.945 272.255 179.144 295.491 155.93 291.965C155.93 291.964 162.483 269.266 185.945 272.255Z" fill="#56B300"/>
<path d="M216.125 315.535C207.792 314.742 206.939 322.267 206.939 322.267L207.251 322.792L207.16 322.231C207.16 322.231 203.507 315.432 195.848 318.804C188.189 322.175 190.728 335.296 199.209 341.405C206.336 346.54 214.835 345.169 219.98 338.055C226.101 329.592 224.459 316.328 216.125 315.535Z" fill="#FF4A44"/>
<path d="M155.543 315.535C163.876 314.742 164.729 322.267 164.729 322.267L164.418 322.792L164.509 322.231C164.509 322.231 168.162 315.432 175.821 318.804C183.48 322.175 180.941 335.296 172.46 341.405C165.333 346.54 156.834 345.169 151.689 338.055C145.566 329.592 147.209 316.328 155.543 315.535Z" fill="#FF4A44"/>
</g>
<g clip-path="url(#clip3)">
<path d="M268.573 251.498L249.6 247.822C249.6 247.822 261.161 260.946 261.161 282.904H268.573H275.984C275.984 260.946 287.546 247.822 287.546 247.822L268.573 251.498Z" fill="#56B300"/>
<path d="M247.229 253.865C255.087 253.865 261.458 247.507 261.458 239.664C261.458 231.82 255.087 225.462 247.229 225.462C239.371 225.462 233 231.82 233 239.664C233 247.507 239.371 253.865 247.229 253.865Z" fill="#9AD166"/>
<path d="M268.573 257.416C276.431 257.416 282.802 251.058 282.802 243.215C282.802 235.371 276.431 229.013 268.573 229.013C260.715 229.013 254.344 235.371 254.344 243.215C254.344 251.058 260.715 257.416 268.573 257.416Z" fill="#9AD166"/>
<path d="M257.012 237C264.87 237 271.241 230.641 271.241 222.798C271.241 214.955 264.87 208.597 257.012 208.597C249.154 208.597 242.783 214.955 242.783 222.798C242.783 230.641 249.154 237 257.012 237Z" fill="#9AD166"/>
<path d="M291.104 253.865C298.962 253.865 305.333 247.507 305.333 239.664C305.333 231.82 298.962 225.462 291.104 225.462C283.246 225.462 276.875 231.82 276.875 239.664C276.875 247.507 283.246 253.865 291.104 253.865Z" fill="#9AD166"/>
<path d="M281.32 237C289.178 237 295.549 230.641 295.549 222.798C295.549 214.955 289.178 208.597 281.32 208.597C273.462 208.597 267.091 214.955 267.091 222.798C267.091 230.641 273.462 237 281.32 237Z" fill="#9AD166"/>
</g>
<g clip-path="url(#clip4)">
<path d="M268.112 158.636C267.377 168.674 255.877 168.674 254.374 158.636L245.891 109.899C245.891 101.589 252.641 94.8167 260.968 94.8167H261.517C269.844 94.8167 276.594 101.589 276.594 109.899L268.112 158.636Z" fill="#FF4A44"/>
<path d="M264.411 104.797H259.069L257.999 79.8456H265.48L264.411 104.797Z" fill="#56B300"/>
<path d="M260.01 90.2186C260.357 91.9452 260.544 93.7228 260.544 95.5393C260.544 95.6041 260.54 95.668 260.538 95.7329C263.091 99.4916 267.801 103.649 275.915 102.597C275.915 102.597 272.62 90.1816 260.01 90.2186Z" fill="#56B300"/>
<path d="M263.613 90.4381C263.613 90.4381 260.866 104.788 246.571 103.99C246.571 103.99 249.199 89.981 263.613 90.4381Z" fill="#56B300"/>
<path d="M261.427 88.9341C261.427 88.9341 270.743 100.201 261.006 110.675C261.006 110.675 251.876 99.7162 261.427 88.9341Z" fill="#56B300"/>
</g>
<g clip-path="url(#clip5)">
<path d="M338.916 155.185C338.916 155.185 341.708 136.613 324.028 131.505C324.028 131.505 321.237 149.613 338.916 155.185Z" fill="#56B300"/>
<path d="M338.123 155.185C338.123 155.185 335.331 136.613 353.011 131.505C353.01 131.505 355.801 149.613 338.123 155.185Z" fill="#56B300"/>
<path d="M338.71 152.71C338.71 152.71 326.734 138.224 339.249 124.759C339.249 124.759 350.987 138.846 338.71 152.71Z" fill="#56B300"/>
<path d="M352.485 140.528L352.001 140.473C346.599 139.874 344.105 142.852 338.999 142.852C333.894 142.852 331.398 139.875 325.997 140.473L325.512 140.528C318.143 141.346 312.821 147.85 313.639 155.204L323.28 198.736C326.243 211.285 334.771 205.049 338.999 205.049C343.227 205.049 351.754 211.285 354.717 198.736L364.359 155.204C365.177 147.85 359.854 141.346 352.485 140.528Z" fill="#FFD01F"/>
</g>
<g clip-path="url(#clip6)">
<path d="M405.408 126.022C405.408 126.022 385.48 114.463 389.946 91.8224C389.946 91.8224 407.855 100.709 405.408 126.022Z" fill="#56B300"/>
<path d="M404.955 126.022C404.955 126.022 424.883 114.463 420.417 91.8224C420.417 91.8224 402.508 100.709 404.955 126.022Z" fill="#56B300"/>
<path d="M408.504 117.957C408.504 119.748 407.049 121.2 405.254 121.2H404.754C402.959 121.2 401.504 119.748 401.504 117.957V95.5002C401.504 93.7086 402.959 92.2564 404.754 92.2564H405.254C407.049 92.2564 408.504 93.7086 408.504 95.5002V117.957Z" fill="#008218"/>
<path d="M411.916 166.498C411.182 176.536 399.682 176.536 398.179 166.498L389.696 117.54C389.696 109.229 396.446 102.235 404.773 102.235H405.322C413.649 102.235 420.399 109.229 420.399 117.54L411.916 166.498Z" fill="#FF9600"/>
</g>
<g clip-path="url(#clip7)">
<path d="M40.916 196.106C40.916 196.106 43.708 177.534 26.028 172.425C26.028 172.426 23.237 190.534 40.916 196.106Z" fill="#56B300"/>
<path d="M40.123 196.106C40.123 196.106 37.331 177.534 55.011 172.425C55.011 172.426 57.802 190.534 40.123 196.106Z" fill="#56B300"/>
<path d="M40.71 193.631C40.71 193.631 28.733 179.145 41.249 165.68C41.249 165.68 52.987 179.766 40.71 193.631Z" fill="#56B300"/>
<path d="M54.485 181.449L54.001 181.394C48.599 180.794 46.105 183.773 40.999 183.773C35.894 183.773 33.398 180.795 27.997 181.394L27.512 181.449C20.143 182.267 14.821 188.771 15.639 196.125L25.28 239.657C28.243 252.205 36.771 245.969 40.999 245.969C45.227 245.969 53.754 252.205 56.717 239.657L66.359 196.125C67.177 188.771 61.854 182.267 54.485 181.449Z" fill="#FF4A44"/>
</g>
<g clip-path="url(#clip8)">
<path d="M450.998 258.496C471.984 258.496 488.996 241.517 488.996 220.572C488.996 199.626 471.984 182.647 450.998 182.647C430.012 182.647 413 199.626 413 220.572C413 241.517 430.012 258.496 450.998 258.496Z" fill="#56B300"/>
<path d="M450.998 252.174C468.486 252.174 482.662 238.025 482.662 220.572C482.662 203.118 468.486 188.969 450.998 188.969C433.51 188.969 419.334 203.118 419.334 220.572C419.334 238.025 433.51 252.174 450.998 252.174Z" fill="#DDF0CC"/>
<path d="M450.998 248.016C466.185 248.016 478.496 235.729 478.496 220.572C478.496 205.414 466.185 193.127 450.998 193.127C435.811 193.127 423.5 205.414 423.5 220.572C423.5 235.729 435.811 248.016 450.998 248.016Z" fill="#FF4A44"/>
<path d="M450.998 224.003C452.897 224.003 454.436 222.467 454.436 220.572C454.436 218.676 452.897 217.14 450.998 217.14C449.099 217.14 447.56 218.676 447.56 220.572C447.56 222.467 449.099 224.003 450.998 224.003Z" fill="#723D1A"/>
<path d="M450.998 207.036C452.897 207.036 454.436 205.499 454.436 203.604C454.436 201.709 452.897 200.173 450.998 200.173C449.099 200.173 447.56 201.709 447.56 203.604C447.56 205.499 449.099 207.036 450.998 207.036Z" fill="#723D1A"/>
<path d="M436.435 215.81C438.334 215.81 439.873 214.273 439.873 212.378C439.873 210.483 438.334 208.947 436.435 208.947C434.536 208.947 432.997 210.483 432.997 212.378C432.997 214.273 434.536 215.81 436.435 215.81Z" fill="#723D1A"/>
<path d="M436.767 232.784C438.666 232.784 440.205 231.248 440.205 229.353C440.205 227.457 438.666 225.921 436.767 225.921C434.868 225.921 433.329 227.457 433.329 229.353C433.329 231.248 434.868 232.784 436.767 232.784Z" fill="#723D1A"/>
<path d="M451.661 240.985C453.56 240.985 455.099 239.449 455.099 237.554C455.099 235.659 453.56 234.122 451.661 234.122C449.762 234.122 448.223 235.659 448.223 237.554C448.223 239.449 449.762 240.985 451.661 240.985Z" fill="#723D1A"/>
<path d="M466.224 232.211C468.123 232.211 469.662 230.675 469.662 228.78C469.662 226.885 468.123 225.348 466.224 225.348C464.325 225.348 462.786 226.885 462.786 228.78C462.786 230.675 464.325 232.211 466.224 232.211Z" fill="#723D1A"/>
<path d="M465.892 215.236C467.791 215.236 469.33 213.7 469.33 211.804C469.33 209.909 467.791 208.373 465.892 208.373C463.993 208.373 462.454 209.909 462.454 211.804C462.454 213.7 463.993 215.236 465.892 215.236Z" fill="#723D1A"/>
</g>
<g clip-path="url(#clip9)">
<path d="M349.1 58.0028V43.0438C349.1 35.0023 342.652 27.946 334.597 27.946H334.478C326.422 27.946 319.1 35.0023 319.1 43.0438V58.0028C313.1 62.5031 309.523 69.5785 309.523 77.5421C309.523 91.1388 320.612 102.16 334.235 102.16C347.858 102.16 358.835 91.1388 358.835 77.5421C358.834 69.5785 355.1 62.5031 349.1 58.0028Z" fill="#793B76"/>
<path d="M337.373 40.9209H332.032L330.961 15.9691H338.443L337.373 40.9209Z" fill="#56B300"/>
<path d="M332.972 26.8351C333.319 28.5628 333.506 30.3393 333.506 32.1558C333.506 32.2207 333.502 32.2846 333.501 32.3494C336.053 36.1082 340.763 40.2651 348.877 39.2132C348.877 39.2132 345.582 26.7992 332.972 26.8351Z" fill="#56B300"/>
<path d="M336.576 26.5876C336.576 26.5876 333.828 40.9378 319.534 40.1394C319.534 40.1394 322.162 26.1305 336.576 26.5876Z" fill="#56B300"/>
<path d="M334.389 25.0825C334.389 25.0825 343.706 36.3497 333.969 46.8235C333.968 46.8235 324.838 35.8656 334.389 25.0825Z" fill="#56B300"/>
</g>
<g clip-path="url(#clip10)">
<path d="M179.17 79.126C179.17 79.126 185.507 51.202 213.45 53.7131C213.45 53.7131 207.372 80.9754 179.17 79.126Z" fill="#008218"/>
<path d="M200.127 79.126C200.127 79.126 193.79 51.202 165.847 53.7131C165.847 53.7131 171.925 80.9754 200.127 79.126Z" fill="#008218"/>
<path d="M189.57 79.652C189.57 79.652 173.401 60.0968 190.299 41.9189C190.3 41.9189 206.146 60.9372 189.57 79.652Z" fill="#008218"/>
<path d="M201.329 105.232C200.044 122.788 179.929 122.788 177.3 105.232C177.3 105.232 162.464 91.54 162.464 82.8089C162.464 69.9727 174.272 60.5349 188.835 60.5349H189.796C204.359 60.5349 216.163 69.3449 216.163 82.8089C216.163 88.3841 201.329 105.232 201.329 105.232Z" fill="#FF4A44"/>
</g>
<g clip-path="url(#clip11)">
<path d="M440.257 23.0604C440.257 23.0604 438.062 6.72701 457.863 5.98843C457.863 5.98843 456.895 24.3769 440.257 23.0604Z" fill="#56B300"/>
<path d="M441.805 31.5081C441.805 33.2996 440.35 34.7518 438.555 34.7518H438.055C436.26 34.7518 434.805 33.2996 434.805 31.5081V12.0457C434.805 10.2542 436.26 8.802 438.055 8.802H438.555C440.35 8.802 441.805 10.2542 441.805 12.0457V31.5081Z" fill="#985123"/>
<path d="M440.481 76.8145C455.945 76.8145 468.481 64.3026 468.481 48.8685C468.481 33.4344 455.945 20.9225 440.481 20.9225C425.017 20.9225 412.481 33.4344 412.481 48.8685C412.481 64.3026 425.017 76.8145 440.481 76.8145Z" fill="#FF9600"/>
</g>
<g clip-path="url(#clip12)">
<path d="M367.739 262.977C367.739 262.977 370.531 244.404 352.851 239.295C352.852 239.296 350.061 257.404 367.739 262.977Z" fill="#56B300"/>
<path d="M366.946 262.977C366.946 262.977 364.154 244.404 381.834 239.295C381.834 239.296 384.625 257.404 366.946 262.977Z" fill="#56B300"/>
<path d="M367.533 260.501C367.533 260.501 355.556 246.015 368.072 232.55C368.072 232.55 379.811 246.637 367.533 260.501Z" fill="#56B300"/>
<path d="M380.824 248.265C373.322 247.972 372.928 250.643 367.822 250.643C362.716 250.643 363.014 247.921 354.82 248.265C345.989 248.636 328.989 252.962 329.031 277.125C329.057 292.329 336.684 308.242 352.198 309.124C352.411 309.097 352.644 309.092 352.889 309.101C356.363 318.138 363.921 312.841 367.822 312.841C371.661 312.841 379.045 317.98 382.589 309.529C383.266 309.446 383.885 309.401 384.402 309.477C399.903 308.912 406.497 293.14 406.965 277.968C406.965 255.29 388.326 248.558 380.824 248.265Z" fill="#FF9600"/>
</g>
<g clip-path="url(#clip13)">
<path d="M107.809 217.068C107.809 217.068 109.867 203.366 96.827 199.598C96.827 199.598 94.768 212.955 107.809 217.068Z" fill="#008218"/>
<path d="M107.222 217.068C107.222 217.068 105.163 203.366 118.204 199.598C118.204 199.598 120.264 212.955 107.222 217.068Z" fill="#008218"/>
<path d="M107.656 215.24C107.656 215.24 98.821 204.555 108.055 194.624C108.055 194.624 116.713 205.016 107.656 215.24Z" fill="#008218"/>
<path d="M123.838 270.818C123.838 279.822 116.525 287.121 107.504 287.121H107.171C98.15 287.121 90.838 279.822 90.838 270.818V224.576C90.838 215.572 98.15 208.273 107.171 208.273H107.504C116.525 208.273 123.838 215.572 123.838 224.576V270.818Z" fill="#56B300"/>
<path d="M114.838 270.497C114.838 279.501 111.878 287.121 107.595 287.121H107.437C103.154 287.121 99.838 279.501 99.838 270.497V224.254C99.838 215.251 103.065 205.956 107.348 205.956L107.462 204.958C111.745 204.958 114.839 215.251 114.839 224.254L114.838 270.497Z" fill="#008218"/>
</g>
<g clip-path="url(#clip14)">
<path d="M49.581 17.073C49.581 17.073 47.386 0.73957 67.187 0C67.187 0 66.217 18.3884 49.581 17.073Z" fill="#56B300"/>
<path d="M51.628 25.6773C51.628 27.4689 50.173 28.9211 48.378 28.9211H47.878C46.083 28.9211 44.628 27.4689 44.628 25.6773V6.21498C44.628 4.42344 46.083 2.97125 47.878 2.97125H48.378C50.173 2.97125 51.628 4.42344 51.628 6.21498V25.6773Z" fill="#985123"/>
<path d="M67.364 13.449C52.392 9.55153 48.175 23.0285 48.175 23.0285L48.15 24.0794L48.152 23.0285C48.152 23.0285 43.933 9.55153 28.963 13.449C13.991 17.3465 14.968 42.0337 28.637 55.6763C40.126 67.1422 46.332 64.154 47.709 62.9084C49.306 64.154 56.201 67.1422 67.691 55.6763C81.359 42.0327 82.335 17.3465 67.364 13.449Z" fill="#FF4A44"/>
</g>
<defs>
<clipPath id="clip0">
<rect x="57" y="64.8746" width="100.846" height="100.651" fill="white"/>
</clipPath>
<clipPath id="clip1">
<rect x="142" y="150.709" width="87.654" height="87.4848" fill="white"/>
</clipPath>
<clipPath id="clip2">
<rect x="148" y="270.477" width="75.669" height="75.523" fill="white"/>
</clipPath>
<clipPath id="clip3">
<rect x="233" y="208.597" width="74.451" height="74.3073" fill="white"/>
</clipPath>
<clipPath id="clip4">
<rect x="218" y="79.8456" width="86.486" height="86.3191" fill="white"/>
</clipPath>
<clipPath id="clip5">
<rect x="298" y="124.759" width="81.997" height="81.8388" fill="white"/>
</clipPath>
<clipPath id="clip6">
<rect x="364" y="91.8224" width="82.363" height="82.2041" fill="white"/>
</clipPath>
<clipPath id="clip7">
<rect y="165.68" width="81.997" height="81.8388" fill="white"/>
</clipPath>
<clipPath id="clip8">
<rect x="413" y="182.647" width="75.996" height="75.8493" fill="white"/>
</clipPath>
<clipPath id="clip9">
<rect x="291" y="15.9691" width="86.358" height="86.1913" fill="white"/>
</clipPath>
<clipPath id="clip10">
<rect x="151" y="41.9189" width="76.628" height="76.4801" fill="white"/>
</clipPath>
<clipPath id="clip11">
<rect x="405" y="5.98843" width="70.963" height="70.826" fill="white"/>
</clipPath>
<clipPath id="clip12">
<rect x="327" y="232.55" width="81.997" height="81.8388" fill="white"/>
</clipPath>
<clipPath id="clip13">
<rect x="61" y="194.624" width="92.676" height="92.4972" fill="white"/>
</clipPath>
<clipPath id="clip14">
<rect x="16" width="64.327" height="64.2029" fill="white"/>
</clipPath>
</defs>
</svg>
